<?xml version="1.0" encoding="utf-8"?>
<!-- Generator: Adobe Illustrator 27.0.1, SVG Export Plug-In . SVG Version: 6.00 Build 0)  -->
<svg version="1.1" id="Layer_1" xmlns="http://www.w3.org/2000/svg" xmlns:xlink="http://www.w3.org/1999/xlink" x="0px" y="0px"
	 viewBox="0 0 198.2541 147.20438" style="enable-background:new 0 0 198.2541 147.20438;" xml:space="preserve">
<style type="text/css">
	.st0{fill:#241F20;}
	.st1{fill:#69BE45;}
</style>
<path class="st0" d="M174.72527,57.95564c-0.04071,4.16803-0.63373,8.6076-1.85138,13.2171
	c-6.24469,23.63989-26.3479,42.69348-44.90173,42.55731l-24.56921-0.1803l-31.58899-0.23187l14.4679-54.76965l27.75586,0.20374
	l-8.23346,31.16858l20.21326,0.14838c8.56738,0.06287,14.6834-8.50635,17.48498-19.11176
	c2.80151-10.60541,1.2276-19.23108-7.33978-19.29395L88.1936,51.31117l6.23444-23.60107l56.15826,0.41211
	c0.37427,0.00275,0.73914,0.02594,1.10638,0.04413c-13.79602-9.69165-32.15368-15.60516-52.30895-15.60516
	c-42.85669,0-77.59888,26.72583-77.59888,59.69379c0,12.91803,5.35187,24.86731,14.41821,34.63623l11.88599-48.63733
	l29.22375,0.23181l-13.38458,54.76965l-21.12195-0.16754c14.15637,11.60272,34.25952,18.86096,56.57745,18.86096
	c42.85662,0,77.59881-26.72583,77.59881-59.69379C176.98253,67.32454,176.19023,62.53835,174.72527,57.95564z"/>
<g>
	<g>
		<path class="st1" d="M18.38836,72.25496c0-19.25989,10.43628-36.55676,27.00635-48.46442
			C25.64513,35.17097,12.98632,52.64583,12.98632,72.25496s12.65881,37.08398,32.40839,48.46442
			C28.82464,108.81172,18.38836,91.51485,18.38836,72.25496z"/>
		<path class="st1" d="M153.3726,23.79048c16.57007,11.90765,27.00641,29.20459,27.00641,48.46448
			s-10.43634,36.55682-27.00641,48.46448c19.74963-11.38043,32.40845-28.85529,32.40845-48.46448
			S173.12224,35.17091,153.3726,23.79048z"/>
	</g>
</g>
<polygon class="st1" points="84.84901,27.64753 55.62528,27.4157 49.85765,51.0168 79.08138,51.24864 "/>
</svg>
